<svg id="visual" viewBox="0 0 960 540" width="960" height="540" xmlns="http://www.w3.org/2000/svg" xmlns:xlink="http://www.w3.org/1999/xlink" version="1.1"><rect x="0" y="0" width="960" height="540" fill="#001220"></rect><path d="M0 410L20 412.7C40 415.3 80 420.7 120 420.7C160 420.7 200 415.3 240 413.7C280 412 320 414 360 412.5C400 411 440 406 480 407.8C520 409.7 560 418.3 600 422.3C640 426.3 680 425.7 720 428.7C760 431.7 800 438.3 840 440.2C880 442 920 439 940 437.5L960 436L960 541L940 541C920 541 880 541 840 541C800 541 760 541 720 541C680 541 640 541 600 541C560 541 520 541 480 541C440 541 400 541 360 541C320 541 280 541 240 541C200 541 160 541 120 541C80 541 40 541 20 541L0 541Z" fill="#537ebf"></path><path d="M0 469L20 465.8C40 462.7 80 456.3 120 455.2C160 454 200 458 240 461.7C280 465.3 320 468.7 360 469.7C400 470.7 440 469.3 480 463.3C520 457.3 560 446.7 600 446.5C640 446.3 680 456.7 720 462.2C760 467.7 800 468.3 840 467C880 465.7 920 462.3 940 460.7L960 459L960 541L940 541C920 541 880 541 840 541C800 541 760 541 720 541C680 541 640 541 600 541C560 541 520 541 480 541C440 541 400 541 360 541C320 541 280 541 240 541C200 541 160 541 120 541C80 541 40 541 20 541L0 541Z" fill="#3b6ec0"></path><path d="M0 486L20 482.7C40 479.3 80 472.7 120 474.3C160 476 200 486 240 486.5C280 487 320 478 360 474C400 470 440 471 480 472C520 473 560 474 600 473.3C640 472.7 680 470.3 720 469.5C760 468.7 800 469.3 840 473.8C880 478.3 920 486.7 940 490.8L960 495L960 541L940 541C920 541 880 541 840 541C800 541 760 541 720 541C680 541 640 541 600 541C560 541 520 541 480 541C440 541 400 541 360 541C320 541 280 541 240 541C200 541 160 541 120 541C80 541 40 541 20 541L0 541Z" fill="#215ec0"></path><path d="M0 496L20 498.3C40 500.7 80 505.3 120 508.2C160 511 200 512 240 510.2C280 508.3 320 503.7 360 501C400 498.3 440 497.7 480 497.3C520 497 560 497 600 498.3C640 499.7 680 502.3 720 506C760 509.7 800 514.3 840 512.2C880 510 920 501 940 496.5L960 492L960 541L940 541C920 541 880 541 840 541C800 541 760 541 720 541C680 541 640 541 600 541C560 541 520 541 480 541C440 541 400 541 360 541C320 541 280 541 240 541C200 541 160 541 120 541C80 541 40 541 20 541L0 541Z" fill="#004cbe"></path></svg>