<svg id="visual" viewBox="0 0 960 540" width="960" height="540" xmlns="http://www.w3.org/2000/svg" xmlns:xlink="http://www.w3.org/1999/xlink" version="1.1"><g stroke-width="1" stroke-linejoin="bevel"><path d="M540.3 297L533.3 368L608 328Z" fill="#082a40" stroke="#082a40"></path><path d="M540.3 297L463.7 375L533.3 368Z" fill="#1e5875" stroke="#1e5875"></path><path d="M649 233L550.3 205L540.3 297Z" fill="#0b3149" stroke="#0b3149"></path><path d="M540.3 297L391.7 294L463.7 375Z" fill="#0f3851" stroke="#0f3851"></path><path d="M608 328L649 233L540.3 297Z" fill="#082a40" stroke="#082a40"></path><path d="M463.7 375L539.3 484L533.3 368Z" fill="#0b3149" stroke="#0b3149"></path><path d="M533.3 368L671 488L608 328Z" fill="#1a506c" stroke="#1a506c"></path><path d="M649 233L658 209L550.3 205Z" fill="#1e5875" stroke="#1e5875"></path><path d="M550.3 205L391.7 294L540.3 297Z" fill="#1e5875" stroke="#1e5875"></path><path d="M463.7 375L434.7 466L539.3 484Z" fill="#21607e" stroke="#21607e"></path><path d="M671 488L741.7 377L608 328Z" fill="#042338" stroke="#042338"></path><path d="M608 328L751.7 255L649 233Z" fill="#1a506c" stroke="#1a506c"></path><path d="M649 233L751.7 255L658 209Z" fill="#1e5875" stroke="#1e5875"></path><path d="M303 430L434.7 466L463.7 375Z" fill="#256887" stroke="#256887"></path><path d="M539.3 484L671 488L533.3 368Z" fill="#042338" stroke="#042338"></path><path d="M741.7 377L751.7 255L608 328Z" fill="#0f3851" stroke="#0f3851"></path><path d="M456.7 540L550.3 540L539.3 484Z" fill="#0f3851" stroke="#0f3851"></path><path d="M539.3 484L620 540L671 488Z" fill="#082a40" stroke="#082a40"></path><path d="M550.3 540L620 540L539.3 484Z" fill="#13405a" stroke="#13405a"></path><path d="M663 117L504.3 124L550.3 205Z" fill="#174863" stroke="#174863"></path><path d="M550.3 205L388.7 195L391.7 294Z" fill="#1e5875" stroke="#1e5875"></path><path d="M663 117L550.3 205L658 209Z" fill="#1a506c" stroke="#1a506c"></path><path d="M504.3 124L388.7 195L550.3 205Z" fill="#174863" stroke="#174863"></path><path d="M760.7 540L776.7 412L671 488Z" fill="#1a506c" stroke="#1a506c"></path><path d="M671 488L776.7 412L741.7 377Z" fill="#021c30" stroke="#021c30"></path><path d="M741.7 377L854.3 354L751.7 255Z" fill="#1e5875" stroke="#1e5875"></path><path d="M434.7 466L456.7 540L539.3 484Z" fill="#1e5875" stroke="#1e5875"></path><path d="M751.7 255L708.7 147L658 209Z" fill="#0f3851" stroke="#0f3851"></path><path d="M708.7 147L663 117L658 209Z" fill="#21607e" stroke="#21607e"></path><path d="M388.7 195L285 296L391.7 294Z" fill="#042338" stroke="#042338"></path><path d="M391.7 294L303 430L463.7 375Z" fill="#0b3149" stroke="#0b3149"></path><path d="M434.7 466L312 540L456.7 540Z" fill="#082a40" stroke="#082a40"></path><path d="M457.7 61L346 172L388.7 195Z" fill="#021c30" stroke="#021c30"></path><path d="M285 296L289 340L391.7 294Z" fill="#256887" stroke="#256887"></path><path d="M289 340L303 430L391.7 294Z" fill="#13405a" stroke="#13405a"></path><path d="M346 172L285 296L388.7 195Z" fill="#174863" stroke="#174863"></path><path d="M620 540L760.7 540L671 488Z" fill="#042338" stroke="#042338"></path><path d="M865.3 434L854.3 354L776.7 412Z" fill="#042338" stroke="#042338"></path><path d="M776.7 412L854.3 354L741.7 377Z" fill="#042338" stroke="#042338"></path><path d="M751.7 255L827.3 151L708.7 147Z" fill="#174863" stroke="#174863"></path><path d="M537.3 0L457.7 61L504.3 124Z" fill="#256887" stroke="#256887"></path><path d="M504.3 124L457.7 61L388.7 195Z" fill="#0b3149" stroke="#0b3149"></path><path d="M854.3 354L854.3 260L751.7 255Z" fill="#0f3851" stroke="#0f3851"></path><path d="M843.3 540L865.3 434L776.7 412Z" fill="#021c30" stroke="#021c30"></path><path d="M854.3 354L960 299L854.3 260Z" fill="#082a40" stroke="#082a40"></path><path d="M854.3 260L827.3 151L751.7 255Z" fill="#082a40" stroke="#082a40"></path><path d="M708.7 147L725.7 57L663 117Z" fill="#1a506c" stroke="#1a506c"></path><path d="M601 0L537.3 0L504.3 124Z" fill="#256887" stroke="#256887"></path><path d="M813.3 108L725.7 57L708.7 147Z" fill="#21607e" stroke="#21607e"></path><path d="M224.3 540L312 540L303 430Z" fill="#21607e" stroke="#21607e"></path><path d="M303 430L312 540L434.7 466Z" fill="#174863" stroke="#174863"></path><path d="M601 0L504.3 124L663 117Z" fill="#0f3851" stroke="#0f3851"></path><path d="M725.7 57L601 0L663 117Z" fill="#174863" stroke="#174863"></path><path d="M827.3 151L813.3 108L708.7 147Z" fill="#256887" stroke="#256887"></path><path d="M760.7 540L843.3 540L776.7 412Z" fill="#021c30" stroke="#021c30"></path><path d="M334 73L248.3 191L346 172Z" fill="#174863" stroke="#174863"></path><path d="M346 172L248.3 191L285 296Z" fill="#21607e" stroke="#21607e"></path><path d="M285 296L184.3 336L289 340Z" fill="#256887" stroke="#256887"></path><path d="M289 340L184.3 336L303 430Z" fill="#0b3149" stroke="#0b3149"></path><path d="M334 73L346 172L457.7 61Z" fill="#13405a" stroke="#13405a"></path><path d="M402.7 0L334 73L457.7 61Z" fill="#21607e" stroke="#21607e"></path><path d="M248.3 191L206.3 271L285 296Z" fill="#021c30" stroke="#021c30"></path><path d="M537.3 0L402.7 0L457.7 61Z" fill="#042338" stroke="#042338"></path><path d="M206.3 271L184.3 336L285 296Z" fill="#1e5875" stroke="#1e5875"></path><path d="M813.3 108L768.7 0L725.7 57Z" fill="#1a506c" stroke="#1a506c"></path><path d="M725.7 57L768.7 0L601 0Z" fill="#21607e" stroke="#21607e"></path><path d="M960 418L960 346L854.3 354Z" fill="#021c30" stroke="#021c30"></path><path d="M854.3 260L960 140L827.3 151Z" fill="#13405a" stroke="#13405a"></path><path d="M827.3 151L960 140L813.3 108Z" fill="#256887" stroke="#256887"></path><path d="M813.3 108L892.3 0L768.7 0Z" fill="#021c30" stroke="#021c30"></path><path d="M960 418L854.3 354L865.3 434Z" fill="#256887" stroke="#256887"></path><path d="M175.3 482L224.3 540L303 430Z" fill="#256887" stroke="#256887"></path><path d="M960 346L960 299L854.3 354Z" fill="#1e5875" stroke="#1e5875"></path><path d="M402.7 0L346 0L334 73Z" fill="#021c30" stroke="#021c30"></path><path d="M132.7 177L206.3 271L248.3 191Z" fill="#256887" stroke="#256887"></path><path d="M132.7 177L126.7 232L206.3 271Z" fill="#082a40" stroke="#082a40"></path><path d="M960 540L960 418L865.3 434Z" fill="#0b3149" stroke="#0b3149"></path><path d="M184.3 336L175.3 482L303 430Z" fill="#042338" stroke="#042338"></path><path d="M960 299L960 140L854.3 260Z" fill="#13405a" stroke="#13405a"></path><path d="M104.7 392L133.7 450L184.3 336Z" fill="#174863" stroke="#174863"></path><path d="M184.3 336L133.7 450L175.3 482Z" fill="#256887" stroke="#256887"></path><path d="M175.3 482L98.7 540L224.3 540Z" fill="#0b3149" stroke="#0b3149"></path><path d="M843.3 540L960 540L865.3 434Z" fill="#042338" stroke="#042338"></path><path d="M132.7 177L248.3 191L189.3 52Z" fill="#0b3149" stroke="#0b3149"></path><path d="M206.3 271L126.7 232L184.3 336Z" fill="#174863" stroke="#174863"></path><path d="M189.3 52L248.3 191L334 73Z" fill="#1a506c" stroke="#1a506c"></path><path d="M126.7 232L104.7 392L184.3 336Z" fill="#256887" stroke="#256887"></path><path d="M0 371L104.7 392L0 264Z" fill="#21607e" stroke="#21607e"></path><path d="M960 61L892.3 0L813.3 108Z" fill="#174863" stroke="#174863"></path><path d="M346 0L189.3 52L334 73Z" fill="#21607e" stroke="#21607e"></path><path d="M960 140L960 61L813.3 108Z" fill="#174863" stroke="#174863"></path><path d="M346 0L185.3 0L189.3 52Z" fill="#1a506c" stroke="#1a506c"></path><path d="M189.3 52L87.7 101L132.7 177Z" fill="#042338" stroke="#042338"></path><path d="M0 412L98.7 540L133.7 450Z" fill="#174863" stroke="#174863"></path><path d="M133.7 450L98.7 540L175.3 482Z" fill="#21607e" stroke="#21607e"></path><path d="M960 61L960 0L892.3 0Z" fill="#174863" stroke="#174863"></path><path d="M88.7 0L87.7 101L189.3 52Z" fill="#13405a" stroke="#13405a"></path><path d="M0 199L0 264L126.7 232Z" fill="#174863" stroke="#174863"></path><path d="M104.7 392L0 412L133.7 450Z" fill="#256887" stroke="#256887"></path><path d="M0 264L104.7 392L126.7 232Z" fill="#021c30" stroke="#021c30"></path><path d="M0 199L126.7 232L132.7 177Z" fill="#021c30" stroke="#021c30"></path><path d="M0 371L0 412L104.7 392Z" fill="#174863" stroke="#174863"></path><path d="M87.7 101L0 199L132.7 177Z" fill="#021c30" stroke="#021c30"></path><path d="M185.3 0L88.7 0L189.3 52Z" fill="#1e5875" stroke="#1e5875"></path><path d="M87.7 101L0 67L0 199Z" fill="#042338" stroke="#042338"></path><path d="M0 412L0 540L98.7 540Z" fill="#042338" stroke="#042338"></path><path d="M88.7 0L0 67L87.7 101Z" fill="#042338" stroke="#042338"></path><path d="M88.7 0L0 0L0 67Z" fill="#174863" stroke="#174863"></path></g></svg>